<svg version="1.2" xmlns="http://www.w3.org/2000/svg" viewBox="0 0 1762 3636" width="1762" height="3636">
	<title>3am Technologies V1</title>
	<defs>
		<clipPath clipPathUnits="userSpaceOnUse" id="cp1">
			<path d="m55.36 3257.33v-1345.34c95.1 361.14 424.59 627.54 816.48 627.54 466.22 0 844.16-376.99 844.16-842.04v1559.84zm1009.89-2379.41l619.27-791.46 31.47-36.24v4.6 1642.67c0-398.63-277.79-732.32-650.74-819.57zm-1009.89-407.26l800.75-2.39-379.67 485.25c-1.26 0.66-2.44 1.44-3.69 2.11l265.86 335.24c41.97-13.68 86.68-21.3 133.23-21.3 236.93 0 429 191.59 429 427.92 0 236.33-192.07 427.92-429 427.92-236.93 0-429-191.59-429-427.92 0-5.39 0.61-10.63 0.81-15.97l-388.29-136.67z"/>
		</clipPath>
	</defs>
	<style>
		tspan { white-space:pre } 
		.s0 { fill: #00a9a2 } 
		.s1 { fill: #038c86 } 
		.t2 { font-size: 97px;fill: #fdfdfd;font-family: "04b03b" } 
		.t3 { font-size: 97px;text-transform: uppercase;fill: #17242c;font-weight: 700;font-family: "ZillaSlab-Bold", "Zilla Slab" } 
	</style>
	<g id="Group 1">
		<g clip-path="url(#cp1)">
			<path id="Rectangle 2" fill-rule="evenodd" class="s0" d="m55.4 3257.3v-1345.3c95.1 361.1 424.5 627.5 816.4 627.5 466.3 0 844.2-377 844.2-842v1559.8zm1009.9-2379.4l619.3-791.4 31.4-36.3v4.6 1642.7c0-398.6-277.8-732.3-650.7-819.6zm-1009.9-407.2l800.8-2.4-379.7 485.2c-1.3 0.7-2.5 1.5-3.7 2.1l265.9 335.3c41.9-13.7 86.6-21.3 133.2-21.3 236.9 0 429 191.6 429 427.9 0 236.3-192.1 427.9-429 427.9-237 0-429-191.6-429-427.9 0-5.4 0.6-10.6 0.8-16l-388.3-136.6z"/>
			<path id="Rectangle 4 copy" fill-rule="evenodd" class="s1" d="m1190.1 965.9l-129.1-79.5-9.3-30.9 664.3-883.5v579.8zm-1169.6-376.9l-19.5-175.7 1095.9-156.2-411 409.9z"/>
		</g>
		<text id="am" style="transform: matrix(12.365,0,0,12.334,950.948,3138.19)" >
			<tspan x="-74.5" y="0" class="t2" dx="0 -5 -5" >am
</tspan>
		</text>
		<text id="Technologies" style="transform: matrix(2.278,0,0,2.277,885.454,3481.191)" >
			<tspan x="-366.3" y="0" class="t3">TECHNOLOGIES
</tspan>
		</text>
		<path id="Rectangle 4" class="s0" d="m52.8 3540.9h1663.2v39.1h-1663.2z"/>
	</g>
</svg>